<?xml version="1.0" standalone="no"?>
<!DOCTYPE svg PUBLIC "-//W3C//DTD SVG 20010904//EN"
 "http://www.w3.org/TR/2001/REC-SVG-20010904/DTD/svg10.dtd">
<svg version="1.0" xmlns="http://www.w3.org/2000/svg"
 width="202.000000pt" height="147.000000pt" viewBox="0 0 202.000000 147.000000"
 preserveAspectRatio="xMidYMid meet">

<g transform="translate(0.000000,147.000000) scale(0.100000,-0.100000)"
fill="#000000" stroke="none">
<path d="M1199 1370 c-56 -30 -107 -96 -129 -168 -26 -85 -25 -138 5 -228 14
-41 25 -83 25 -93 0 -43 -16 -46 -364 -52 -348 -7 -395 -13 -486 -59 -70 -35
-94 -127 -46 -175 31 -31 99 -39 261 -27 72 5 133 7 138 5 4 -2 7 -16 7 -31 0
-15 5 -43 11 -62 6 -19 10 -61 9 -93 -1 -41 4 -68 18 -90 14 -25 18 -46 14
-93 -4 -59 -3 -63 33 -103 44 -48 107 -71 199 -71 84 0 135 16 171 54 21 22
41 33 65 35 53 4 135 47 173 91 38 45 95 73 185 91 34 7 62 17 62 21 0 15 -48
8 -125 -16 -66 -21 -76 -22 -69 -8 13 30 17 152 5 152 -7 0 -11 -22 -11 -57
-1 -100 -52 -182 -142 -227 -29 -14 -67 -26 -85 -26 -28 0 -33 3 -33 24 0 14
-4 27 -10 31 -5 3 7 21 27 39 46 42 51 91 13 131 -13 14 -18 25 -12 25 6 0 19
14 27 31 30 56 0 111 -77 144 -62 25 -230 17 -310 -16 -45 -19 -22 -28 29 -12
27 8 89 17 139 20 77 5 97 3 136 -15 76 -33 101 -103 48 -132 -17 -9 -20 -8
-20 9 0 11 -11 33 -25 48 -21 24 -26 26 -35 13 -6 -8 -9 -35 -8 -60 2 -42 1
-45 -27 -51 -46 -10 -185 -10 -228 0 -69 16 -126 94 -127 172 0 34 2 37 38 43
20 3 55 6 77 6 38 0 75 14 65 23 -3 3 -61 -1 -130 -8 -330 -35 -461 -30 -474
18 -12 47 -6 76 24 105 64 64 183 81 565 82 218 0 255 2 285 18 45 22 49 54
18 136 -32 85 -31 190 4 266 46 102 151 167 198 125 26 -23 25 -57 -2 -152
-17 -60 -22 -105 -23 -198 0 -114 1 -122 29 -170 54 -93 59 -108 64 -176 6
-88 25 -91 20 -4 -1 36 -3 65 -3 65 0 0 22 -7 49 -15 57 -17 110 -20 101 -5
-3 6 -18 10 -33 10 -15 1 -49 9 -75 18 -48 17 -67 39 -114 132 -26 52 -24 228
5 337 29 107 28 138 -3 168 -29 30 -66 31 -116 5z m-144 -953 c0 -39 -19 -38
-23 2 -3 24 0 32 10 29 7 -3 13 -17 13 -31z m-302 -68 c57 -14 232 -7 291 13
37 12 40 11 62 -15 29 -34 30 -47 3 -81 -25 -32 -39 -33 -39 -2 0 13 -10 36
-21 50 -27 35 -39 21 -39 -48 l0 -48 -122 3 c-100 3 -130 8 -162 25 -47 24
-76 74 -76 128 l0 40 28 -26 c15 -15 49 -32 75 -39z m297 -96 c0 -13 -4 -23
-10 -23 -5 0 -10 17 -10 38 0 27 3 33 10 22 5 -8 10 -25 10 -37z m-134 -52
c109 2 137 0 145 -12 16 -26 9 -67 -16 -96 -22 -25 -24 -26 -25 -8 0 11 -10
35 -21 54 -19 31 -22 33 -31 17 -6 -10 -11 -37 -12 -59 l-3 -42 -80 1 c-125 1
-193 50 -193 137 0 18 3 36 6 39 3 4 26 -3 50 -14 39 -17 64 -19 180 -17z m75
-134 c-8 -8 -11 0 -10 28 1 40 1 40 11 12 7 -21 7 -32 -1 -40z"/>
</g>
</svg>
