<?xml version="1.0" standalone="no"?>
<!DOCTYPE svg PUBLIC "-//W3C//DTD SVG 20010904//EN"
 "http://www.w3.org/TR/2001/REC-SVG-20010904/DTD/svg10.dtd">
<svg version="1.0" xmlns="http://www.w3.org/2000/svg"
 width="137.000000pt" height="141.000000pt" viewBox="0 0 137.000000 141.000000"
 preserveAspectRatio="xMidYMid meet">

<g transform="translate(0.000000,141.000000) scale(0.100000,-0.100000)"
fill="#000000" stroke="none">
<path d="M741 1295 c-34 -64 -57 -85 -94 -85 -54 0 -147 -52 -208 -117 -101
-105 -143 -215 -143 -368 1 -139 21 -206 83 -266 59 -57 127 -91 186 -91 38
-1 45 -4 39 -17 -45 -106 -53 -213 -19 -269 43 -72 142 -96 190 -48 23 23 25
31 23 123 -3 122 14 176 79 256 188 230 198 252 197 412 -1 74 -6 124 -17 152
-15 39 -14 44 4 79 20 41 16 61 -6 30 -8 -10 -16 -24 -18 -30 -2 -6 -14 1 -26
17 -24 29 -59 52 -68 43 -3 -3 9 -17 26 -32 83 -70 117 -263 71 -400 -19 -56
-38 -83 -175 -259 -56 -71 -78 -123 -90 -206 l-6 -47 -38 5 c-21 3 -48 0 -61
-7 l-24 -13 32 -28 c39 -35 55 -36 82 -7 l20 22 0 -41 c0 -103 -126 -105 -182
-3 -16 28 -18 48 -14 103 6 77 31 137 101 236 51 73 95 195 95 261 -1 91 -60
170 -127 170 -91 0 -163 -89 -163 -200 0 -66 16 -94 84 -153 37 -32 56 -56 56
-71 0 -129 -246 -32 -296 117 -28 82 -25 243 4 330 63 181 201 300 350 301 34
0 62 3 62 8 0 4 -7 8 -15 8 -20 0 -20 2 15 64 17 30 27 57 23 59 -5 3 -19 -14
-32 -38z m-29 -474 c18 -16 30 -33 25 -37 -9 -9 -147 34 -147 46 0 12 19 18
57 19 23 1 43 -8 65 -28z m-130 -17 c4 -3 -1 -22 -9 -42 -21 -50 -12 -113 21
-153 21 -24 26 -38 21 -58 -4 -14 -8 -28 -10 -30 -6 -6 -69 50 -82 73 -38 66
16 254 59 210z m49 -82 c-2 -40 1 -68 9 -77 9 -10 11 -32 7 -65 -8 -70 -26
-98 -19 -32 4 45 1 55 -22 82 -18 22 -26 43 -26 70 0 55 16 92 38 88 14 -3 16
-13 13 -66z m59 32 c0 -8 -5 -24 -10 -35 -8 -13 -7 -25 0 -39 6 -11 7 -32 4
-47 -7 -27 -7 -27 -26 16 -15 35 -16 50 -8 82 11 38 40 55 40 23z m65 -69 c0
-58 -6 -82 -33 -140 -18 -38 -41 -81 -50 -95 l-16 -25 -7 33 c-7 34 5 79 41
147 13 26 18 49 14 68 -3 15 -3 41 1 58 5 24 11 29 28 27 20 -3 22 -9 22 -73z
m-5 -540 c0 -21 -27 -30 -45 -15 -23 19 -18 30 15 30 20 0 30 -5 30 -15z"/>
</g>
</svg>
