<?xml version="1.0" standalone="no"?>
<!DOCTYPE svg PUBLIC "-//W3C//DTD SVG 20010904//EN"
 "http://www.w3.org/TR/2001/REC-SVG-20010904/DTD/svg10.dtd">
<svg version="1.0" xmlns="http://www.w3.org/2000/svg"
 width="317.000000pt" height="299.000000pt" viewBox="0 0 317.000000 299.000000"
 preserveAspectRatio="xMidYMid meet">

<g transform="translate(0.000000,299.000000) scale(0.100000,-0.100000)"
fill="#000000" stroke="none">
<path d="M1788 2716 c-36 -13 -93 -42 -125 -65 -55 -38 -62 -40 -91 -30 -18 6
-69 9 -115 7 -66 -3 -94 -9 -142 -33 -67 -34 -175 -119 -182 -145 -4 -13 -20
-19 -67 -23 -173 -16 -303 -122 -406 -332 -55 -111 -103 -274 -121 -410 -14
-105 -6 -443 11 -520 57 -246 134 -415 242 -531 39 -41 96 -90 128 -110 l58
-35 6 -89 c4 -48 5 -105 1 -126 -16 -105 -17 -102 5 -114 17 -9 22 -7 30 16 6
14 11 84 11 155 1 71 4 129 8 129 3 0 27 -7 52 -14 25 -8 84 -16 130 -18 79
-3 84 -2 87 18 3 20 -3 22 -70 28 -158 16 -254 51 -352 132 -140 114 -253 352
-292 615 -21 143 -15 452 11 569 101 453 358 678 635 554 99 -45 148 -108 170
-222 10 -49 16 -62 31 -62 26 0 28 8 18 73 -21 132 -112 238 -231 268 -26 7
-48 18 -48 24 0 29 122 116 199 140 63 21 170 17 220 -9 93 -49 179 -185 201
-322 20 -118 18 -114 44 -114 22 0 24 3 19 43 -18 151 -75 288 -155 371 -57
59 -55 64 49 117 59 30 76 34 142 34 88 0 120 -14 181 -78 86 -89 140 -261
140 -451 0 -97 0 -98 -22 -92 -108 31 -143 36 -243 36 -60 0 -150 -5 -200 -10
-49 -5 -133 -14 -187 -20 -181 -19 -269 -104 -255 -249 l5 -59 -64 6 c-54 4
-71 1 -117 -22 -62 -30 -92 -59 -84 -80 3 -8 30 -29 59 -46 47 -28 60 -31 120
-28 50 3 75 9 97 26 39 29 45 28 36 -5 -11 -47 -67 -136 -115 -184 -112 -112
-245 -73 -300 89 -37 106 -39 352 -4 478 4 17 0 22 -19 26 -24 5 -26 1 -37
-56 -6 -34 -14 -115 -17 -182 -9 -191 26 -327 104 -408 45 -46 90 -60 167 -52
91 9 157 62 228 183 l24 43 31 -44 c81 -114 193 -138 267 -57 17 19 30 21 134
21 100 0 113 -2 108 -16 -3 -9 -6 -20 -6 -24 0 -5 -37 -28 -82 -52 -137 -71
-248 -199 -248 -285 0 -19 4 -24 22 -21 16 2 24 12 29 36 16 79 106 168 238
236 l88 45 12 72 c6 39 10 73 8 75 -2 2 -19 -1 -38 -6 -44 -13 -187 -13 -268
1 -73 11 -171 50 -217 85 -43 32 -92 108 -111 173 -12 43 -13 61 -4 92 21 69
80 119 160 135 l30 6 -6 -54 c-9 -87 21 -136 77 -128 51 7 109 91 110 158 0
46 26 53 189 53 203 0 282 -31 390 -153 91 -104 212 -330 230 -432 16 -85 14
-244 -4 -330 -37 -177 -140 -361 -273 -484 -58 -53 -179 -135 -203 -137 -9 -1
-24 -7 -32 -13 -21 -18 -122 -51 -179 -58 -51 -7 -70 -26 -49 -47 8 -8 36 -6
108 11 53 12 97 21 99 19 1 -1 -3 -45 -9 -98 -13 -117 -3 -184 28 -184 19 0
20 6 17 90 -1 50 4 119 10 154 l13 64 70 42 c221 134 376 346 440 599 40 158
32 355 -20 487 -13 35 -12 42 15 111 81 211 111 485 71 652 -51 212 -169 331
-340 344 -68 4 -181 -13 -181 -28 0 -5 -26 7 -57 26 -101 61 -167 68 -275 30z
m613 -103 c99 -44 175 -165 199 -316 15 -94 8 -281 -15 -377 -24 -102 -65
-230 -73 -230 -4 0 -23 28 -42 61 -19 34 -52 85 -73 113 -44 59 -146 166 -158
166 -5 0 -9 5 -9 10 0 6 6 10 14 10 20 0 26 23 26 94 0 162 -36 323 -96 421
l-33 55 27 6 c15 3 32 8 37 10 27 10 154 -5 196 -23z m-721 -617 c0 -41 -38
-100 -68 -104 -20 -3 -22 1 -22 50 0 60 6 74 35 81 48 12 55 8 55 -27z m-379
-295 c23 -18 23 -21 7 -37 -24 -24 -105 -30 -151 -11 -20 9 -37 20 -37 25 0
16 72 41 116 41 27 1 50 -6 65 -18z m192 -155 c12 -8 53 -24 90 -36 70 -23 80
-38 35 -54 -35 -12 -72 -1 -113 36 -60 52 -69 90 -12 54z"/>
</g>
</svg>
