<?xml version="1.0" standalone="no"?>
<!DOCTYPE svg PUBLIC "-//W3C//DTD SVG 20010904//EN"
 "http://www.w3.org/TR/2001/REC-SVG-20010904/DTD/svg10.dtd">
<svg version="1.0" xmlns="http://www.w3.org/2000/svg"
 width="179.000000pt" height="140.000000pt" viewBox="0 0 179.000000 140.000000"
 preserveAspectRatio="xMidYMid meet">

<g transform="translate(0.000000,140.000000) scale(0.100000,-0.100000)"
fill="#000000" stroke="none">
<path d="M420 1293 c-8 -3 -30 -19 -47 -36 -26 -24 -33 -39 -33 -67 0 -50 26
-72 200 -170 80 -45 165 -95 190 -110 25 -15 65 -40 88 -55 65 -39 45 -40 -40
-1 -131 60 -393 135 -471 136 -73 0 -137 -61 -137 -133 0 -63 21 -83 124 -116
95 -31 303 -81 419 -102 73 -14 95 -36 25 -25 -267 40 -441 48 -503 22 -38
-16 -75 -68 -75 -104 0 -34 28 -82 54 -92 33 -12 260 -39 406 -48 116 -6 125
-8 125 -27 0 -18 -9 -21 -100 -27 -200 -13 -324 -53 -353 -114 -14 -31 -14
-37 1 -70 25 -50 92 -80 151 -65 84 21 292 41 494 47 222 6 254 11 341 51 68
32 139 34 205 4 27 -11 48 -16 52 -10 6 10 -43 34 -89 43 -15 3 -39 8 -53 11
l-25 6 27 32 c31 37 58 96 48 106 -4 3 -8 2 -10 -4 -28 -77 -106 -149 -201
-185 -50 -20 -86 -24 -273 -31 -214 -8 -457 -31 -519 -49 -73 -21 -155 43
-131 104 12 32 51 52 148 77 93 24 292 38 292 21 0 -7 4 -12 8 -12 5 0 12 44
15 98 8 127 47 275 102 387 42 85 51 121 20 79 -13 -18 -16 -18 -42 -3 -171
97 -453 266 -470 282 -43 39 -20 102 45 128 76 30 164 -12 342 -161 111 -93
221 -165 283 -186 l50 -17 -43 -35 c-65 -54 -70 -75 -70 -276 0 -167 1 -176
22 -196 27 -25 90 -27 138 -2 50 24 70 72 73 170 l2 81 38 -6 c48 -7 50 12 1
21 -19 4 -42 10 -50 13 -11 4 -14 -11 -14 -86 0 -107 -15 -153 -59 -175 -39
-20 -95 -20 -115 0 -24 23 -19 66 9 93 32 29 32 55 0 87 -22 22 -25 34 -25 92
0 126 34 181 129 208 164 48 341 -64 341 -217 0 -16 5 -29 10 -29 6 0 10 16
10 35 l0 35 50 -25 c49 -25 80 -32 80 -17 0 4 -30 20 -65 36 -56 25 -69 36
-92 77 -48 89 -134 131 -273 135 -150 3 -208 31 -418 202 -179 145 -284 193
-362 165z m94 -368 c117 -32 310 -105 329 -124 15 -15 -44 -151 -66 -151 -43
0 -325 65 -475 109 -88 27 -112 48 -112 99 0 75 57 116 149 106 30 -3 109 -21
175 -39z m46 -306 c47 -5 115 -17 151 -25 l67 -15 -8 -37 c-4 -20 -11 -58 -15
-84 l-6 -48 -63 0 c-81 0 -359 27 -424 41 -53 11 -82 39 -82 79 0 31 30 71 65
86 37 16 198 18 315 3z m480 -64 c0 -7 -7 -18 -15 -25 -13 -11 -15 -7 -15 25
0 32 2 36 15 25 8 -7 15 -18 15 -25z"/>
</g>
</svg>
