<?xml version="1.0" standalone="no"?>
<!DOCTYPE svg PUBLIC "-//W3C//DTD SVG 20010904//EN"
 "http://www.w3.org/TR/2001/REC-SVG-20010904/DTD/svg10.dtd">
<svg version="1.0" xmlns="http://www.w3.org/2000/svg"
 width="143.000000pt" height="157.000000pt" viewBox="0 0 143.000000 157.000000"
 preserveAspectRatio="xMidYMid meet">

<g transform="translate(0.000000,157.000000) scale(0.100000,-0.100000)"
fill="#000000" stroke="none">
<path d="M540 1489 c-68 -27 -81 -75 -50 -173 18 -54 21 -84 18 -143 -5 -69
-11 -87 -86 -236 -63 -126 -83 -178 -92 -232 -17 -109 9 -234 72 -347 19 -33
20 -42 9 -79 -16 -52 -6 -63 14 -16 l15 37 42 -30 c41 -30 68 -38 68 -21 0 5
-14 14 -30 21 -57 24 -118 113 -153 225 -45 145 -30 232 80 446 l78 153 0 106
0 106 26 -4 c26 -4 82 19 94 38 3 5 -13 19 -35 30 -45 23 -75 16 -90 -23 -8
-21 -8 -21 -19 6 -16 42 -14 63 12 91 32 37 73 42 127 14 54 -28 86 -80 96
-156 8 -65 -10 -160 -41 -222 -53 -104 -82 -262 -65 -346 30 -145 166 -207
253 -116 38 40 57 93 57 161 0 100 -27 144 -115 188 -96 48 -115 83 -70 128
31 32 92 33 169 5 117 -44 170 -111 211 -265 73 -277 -87 -591 -317 -621 -50
-7 -67 -24 -23 -24 25 0 25 -1 11 -29 -20 -37 -36 -111 -26 -111 5 0 12 10 16
23 24 78 47 127 60 127 36 0 129 58 177 110 144 157 179 412 86 635 -35 83
-65 114 -152 156 -86 41 -164 52 -209 28 -19 -10 -20 -9 -15 12 26 105 14 218
-29 281 -27 38 -94 79 -130 77 -10 0 -30 -5 -44 -10z m56 -133 c23 -17 18 -24
-24 -32 -28 -6 -32 -4 -32 14 0 18 11 28 31 31 3 1 14 -5 25 -13z m125 -436
c-22 -100 -24 -129 -10 -153 8 -12 13 -37 11 -54 -3 -27 -8 -33 -27 -33 -62 0
-69 157 -13 318 l22 62 14 -42 c12 -35 12 -53 3 -98z m83 -72 c31 -27 39 -41
43 -80 7 -62 -2 -98 -26 -98 -16 0 -19 10 -23 66 -3 49 -9 70 -22 80 -23 16
-32 61 -27 122 l5 47 6 -52 c5 -44 11 -57 44 -85z m97 24 c35 -70 21 -212 -20
-212 -15 0 -17 7 -13 54 6 71 -12 120 -54 152 -28 22 -34 33 -34 64 l0 38 50
-27 c38 -19 56 -37 71 -69z m-147 -60 c34 -50 38 -132 6 -132 -16 0 -20 7 -20
30 0 17 5 30 11 30 6 0 1 12 -10 26 -17 22 -30 84 -17 84 2 0 15 -17 30 -38z
m100 -171 c20 -8 19 -9 -14 -30 -40 -25 -80 -22 -119 7 -49 36 -40 45 39 38
40 -4 82 -11 94 -15z"/>
</g>
</svg>
