<?xml version="1.0" standalone="no"?>
<!DOCTYPE svg PUBLIC "-//W3C//DTD SVG 20010904//EN"
 "http://www.w3.org/TR/2001/REC-SVG-20010904/DTD/svg10.dtd">
<svg version="1.0" xmlns="http://www.w3.org/2000/svg"
 width="158.000000pt" height="120.000000pt" viewBox="0 0 158.000000 120.000000"
 preserveAspectRatio="xMidYMid meet">

<g transform="translate(0.000000,120.000000) scale(0.100000,-0.100000)"
fill="#000000" stroke="none">
<path d="M385 1042 c-51 -39 -90 -89 -120 -155 -30 -64 -32 -116 -5 -150 12
-15 20 -40 20 -62 0 -28 7 -44 30 -65 16 -15 30 -37 30 -48 0 -11 12 -34 26
-51 l26 -31 -50 -78 c-118 -184 -145 -270 -102 -325 55 -69 133 -34 237 105
38 51 77 106 87 121 11 19 23 27 33 23 17 -7 336 19 418 34 71 12 94 22 153
70 67 52 109 70 167 70 31 0 44 4 39 11 -7 12 -94 8 -127 -6 -15 -6 -17 -4
-11 19 3 15 2 26 -4 26 -5 0 -12 -10 -16 -22 -10 -40 -65 -96 -119 -122 -42
-21 -82 -29 -207 -42 -287 -29 -377 -22 -420 33 -29 37 -25 67 12 98 l32 27
13 -26 c8 -14 19 -26 27 -26 17 0 56 43 56 61 0 16 90 34 231 46 78 7 104 23
37 23 -59 0 -232 -26 -313 -46 -152 -38 -184 -156 -55 -208 22 -9 40 -20 40
-24 0 -20 -161 -221 -193 -241 -43 -26 -57 -26 -91 0 -19 15 -26 30 -26 55 0
31 3 34 29 34 37 0 46 23 25 60 -16 27 -16 29 15 84 68 119 188 273 315 403
33 34 56 66 52 70 -9 9 -133 -119 -215 -222 l-56 -71 -23 27 c-12 15 -22 34
-22 42 0 36 95 199 151 259 62 66 69 84 20 49 -41 -29 -126 -145 -153 -208
-25 -58 -36 -63 -63 -33 -39 43 10 185 95 274 28 30 47 57 42 60 -17 10 -103
-93 -133 -160 -25 -55 -32 -64 -44 -54 -36 30 -6 133 61 215 63 77 83 85 225
85 130 0 364 -22 433 -41 94 -25 201 -107 221 -168 3 -11 11 -21 17 -21 5 0 7
7 4 15 -3 8 -9 22 -13 32 -5 13 -2 15 18 9 51 -15 132 -20 125 -8 -4 7 -19 12
-34 12 -50 0 -139 35 -178 69 -90 79 -218 107 -544 117 l-185 6 -40 -30z m205
-510 c0 -18 -28 -45 -38 -38 -18 11 -14 34 6 39 28 8 32 7 32 -1z m-300 -333
c0 -5 -9 -9 -20 -9 -22 0 -23 1 -14 24 5 13 9 14 20 5 8 -6 14 -15 14 -20z"/>
</g>
</svg>
