<?xml version="1.0" standalone="no"?>
<!DOCTYPE svg PUBLIC "-//W3C//DTD SVG 20010904//EN"
 "http://www.w3.org/TR/2001/REC-SVG-20010904/DTD/svg10.dtd">
<svg version="1.0" xmlns="http://www.w3.org/2000/svg"
 width="180.000000pt" height="126.000000pt" viewBox="0 0 180.000000 126.000000"
 preserveAspectRatio="xMidYMid meet">
<metadata>
Created by potrace 1.16, written by Peter Selinger 2001-2019
</metadata>
<g transform="translate(0.000000,126.000000) scale(0.100000,-0.100000)"
fill="#000000" stroke="none">
<path d="M339 1153 c-62 -10 -93 -90 -57 -145 15 -23 191 -99 421 -183 26 -10
47 -18 47 -19 0 0 -114 -1 -252 -1 -281 0 -318 -6 -343 -55 -20 -38 -19 -85 1
-120 24 -40 124 -64 394 -96 36 -4 56 -9 45 -11 -148 -29 -264 -74 -324 -128
-35 -32 -41 -43 -41 -77 0 -58 42 -98 105 -98 58 0 166 22 292 60 54 16 116
30 138 30 l41 0 17 -72 c30 -130 103 -198 212 -198 135 0 299 110 369 248 22
43 32 52 72 66 26 9 56 16 66 16 10 0 18 7 18 15 0 14 -9 13 -109 -19 -22 -8
-23 -7 -16 33 10 62 -10 50 -23 -13 -28 -141 -134 -256 -280 -308 -121 -43
-220 -7 -268 95 -46 101 -42 176 18 307 l30 65 16 -25 c44 -65 87 -77 137 -38
38 30 55 76 56 155 1 67 1 67 15 36 14 -32 39 -57 32 -32 -19 70 -62 189 -66
184 -4 -3 -5 -59 -3 -124 3 -131 -9 -177 -53 -206 -35 -23 -69 -13 -91 28 -17
32 -17 35 0 60 22 34 13 74 -20 89 -30 14 -39 63 -33 187 6 132 46 186 145
197 38 5 70 1 124 -16 63 -19 81 -30 135 -84 50 -50 66 -74 78 -118 9 -30 14
-62 10 -71 -3 -10 -1 -17 5 -17 6 0 14 14 17 30 4 17 7 30 8 30 0 0 23 -7 50
-15 57 -17 76 -19 76 -6 0 5 -15 12 -32 16 -94 19 -105 26 -128 75 -66 142
-265 235 -395 186 -80 -31 -115 -95 -115 -213 0 -37 -4 -63 -10 -63 -17 0
-291 101 -434 160 -111 46 -130 57 -141 83 -41 98 67 129 245 72 89 -29 243
-98 298 -135 39 -27 43 -10 5 18 -134 96 -402 183 -504 165z m477 -379 l31 -6
-13 -46 c-8 -25 -17 -76 -21 -114 l-6 -68 -91 6 c-157 8 -307 25 -411 45 -114
22 -145 45 -145 103 0 45 26 73 80 85 46 11 517 7 576 -5z m89 -182 c3 -8 -6
-32 -19 -55 -28 -48 -50 -104 -66 -164 -11 -42 -12 -43 -53 -43 -23 0 -107
-18 -187 -41 -80 -22 -175 -43 -212 -46 -62 -5 -68 -4 -92 20 -93 93 80 205
379 246 119 17 165 15 165 -7 0 -21 9 -34 20 -27 5 3 3 23 -2 46 -11 42 0 141
25 223 l11 39 13 -89 c7 -49 15 -95 18 -102z"/>
</g>
</svg>
