<?xml version="1.0" standalone="no"?>
<!DOCTYPE svg PUBLIC "-//W3C//DTD SVG 20010904//EN"
 "http://www.w3.org/TR/2001/REC-SVG-20010904/DTD/svg10.dtd">
<svg version="1.0" xmlns="http://www.w3.org/2000/svg"
 width="144.000000pt" height="161.000000pt" viewBox="0 0 144.000000 161.000000"
 preserveAspectRatio="xMidYMid meet">

<g transform="translate(0.000000,161.000000) scale(0.100000,-0.100000)"
fill="#000000" stroke="none">
<path d="M829 1520 c-79 -41 -137 -140 -146 -245 -4 -48 0 -76 21 -138 46
-137 45 -138 -129 -130 -116 5 -140 3 -201 -15 -125 -38 -185 -112 -169 -211
4 -25 6 -76 6 -113 -1 -36 3 -86 10 -110 7 -24 13 -79 14 -123 0 -62 5 -89 22
-121 21 -40 75 -94 94 -94 5 0 9 -18 9 -40 0 -52 45 -105 103 -121 45 -12 148
-6 195 12 32 12 82 58 82 74 0 7 22 15 54 18 78 8 132 39 216 126 52 53 95 86
139 108 34 17 58 33 53 37 -12 7 -50 -8 -104 -41 l-37 -23 5 33 c3 17 8 38 10
45 2 8 -1 12 -8 10 -7 -3 -16 -21 -20 -42 -24 -113 -135 -216 -251 -232 -40
-6 -46 -3 -81 32 -22 22 -33 40 -26 42 6 2 23 14 37 26 28 24 35 69 20 113 -7
19 -2 25 31 42 45 23 105 87 96 102 -4 6 -19 -5 -36 -25 -17 -20 -47 -45 -69
-56 -45 -23 -73 -27 -42 -5 45 32 50 119 8 142 -13 8 -11 12 14 31 18 13 35
38 42 61 10 34 9 44 -7 72 -11 18 -36 41 -57 52 -53 27 -161 34 -221 14 -25
-9 -46 -13 -46 -9 0 4 -9 18 -20 32 -26 34 -26 6 0 -38 19 -31 21 -32 42 -18
58 37 213 27 265 -18 29 -25 34 -68 11 -108 -13 -22 -13 -22 -16 13 -4 43 -36
79 -54 61 -6 -6 -14 -38 -16 -71 -5 -67 -2 -65 -105 -87 -134 -28 -207 -15
-271 49 -41 42 -76 121 -76 173 0 75 58 134 162 165 64 20 86 21 203 16 123
-6 133 -5 150 13 23 25 22 55 -3 123 -32 84 -37 145 -18 210 37 129 174 230
229 169 22 -24 21 -46 -4 -145 -16 -59 -22 -110 -21 -182 0 -113 15 -165 62
-223 37 -46 70 -130 70 -177 0 -18 5 -37 11 -41 9 -5 10 9 7 50 -3 31 -4 56
-3 56 2 0 18 -6 36 -14 48 -19 119 -30 119 -18 0 6 -15 13 -32 17 -89 18 -137
38 -142 61 -3 12 -23 44 -43 71 -20 26 -43 64 -50 83 -20 56 -16 224 7 315 25
99 25 126 -1 159 -25 32 -76 35 -130 6z m-101 -823 c6 -29 -7 -67 -22 -67 -19
0 -27 24 -19 61 6 33 35 37 41 6z m-362 -135 c54 -16 133 -15 214 3 36 7 67
12 69 10 2 -3 -2 -18 -9 -35 -7 -17 -10 -48 -7 -69 l5 -39 -65 -12 c-83 -16
-191 -8 -239 17 -49 25 -93 103 -101 179 l-6 56 49 -49 c30 -30 65 -53 90 -61z
m349 22 c25 -10 37 -50 23 -79 -12 -27 -28 -33 -28 -11 0 7 -11 30 -25 50 -14
20 -25 39 -25 41 0 7 36 6 55 -1z m-25 -105 c0 -36 -28 -47 -36 -14 -3 14 -3
37 1 52 6 27 7 27 21 9 8 -11 14 -32 14 -47z m-312 -80 c69 -14 200 -7 261 14
31 11 50 13 63 6 18 -10 34 -52 30 -79 -8 -42 -14 -43 -31 -5 -10 22 -25 46
-34 53 -14 12 -17 10 -24 -15 -4 -15 -7 -47 -7 -70 l1 -42 -49 -11 c-27 -5
-92 -10 -145 -10 l-95 0 -38 38 c-40 40 -67 121 -56 166 l6 24 30 -28 c20 -19
50 -33 88 -41z m312 -100 c0 -9 -6 -19 -14 -22 -17 -7 -26 21 -18 58 l5 28 13
-24 c7 -13 13 -31 14 -40z m-3 -85 c38 -29 43 -62 14 -88 -18 -17 -19 -16 -31
18 -6 19 -17 40 -25 46 -12 10 -17 7 -25 -15 -5 -14 -10 -41 -10 -60 0 -31 -3
-34 -37 -39 -100 -17 -193 35 -193 107 l0 32 88 2 c48 2 103 7 122 12 54 14
61 13 97 -15z m-37 -73 c10 -21 4 -51 -11 -51 -5 0 -9 16 -9 35 0 40 5 43 20
16z"/>
</g>
</svg>
