<?xml version="1.0" standalone="no"?>
<!DOCTYPE svg PUBLIC "-//W3C//DTD SVG 20010904//EN"
 "http://www.w3.org/TR/2001/REC-SVG-20010904/DTD/svg10.dtd">
<svg version="1.0" xmlns="http://www.w3.org/2000/svg"
 width="122.000000pt" height="132.000000pt" viewBox="0 0 122.000000 132.000000"
 preserveAspectRatio="xMidYMid meet">

<g transform="translate(0.000000,132.000000) scale(0.100000,-0.100000)"
fill="#000000" stroke="none">
<path d="M615 1181 c-35 -9 -71 -27 -104 -52 -13 -11 -32 -19 -42 -19 -36 0
-112 -41 -163 -90 -29 -27 -57 -50 -63 -50 -19 0 -73 -67 -88 -110 -31 -89 2
-132 95 -124 30 3 68 6 85 7 l29 2 -4 -50 c-3 -27 -4 -93 -4 -147 3 -165 50
-234 188 -273 78 -22 97 -35 189 -127 104 -105 118 -106 29 -1 l-44 52 66 -6
c42 -4 66 -2 66 4 0 6 -28 13 -62 15 -71 6 -170 48 -194 82 -8 12 -32 48 -54
81 -21 33 -48 72 -60 88 -16 20 -18 27 -8 27 22 0 60 46 56 67 -4 22 -57 30
-88 13 -18 -10 -20 -8 -20 19 0 39 40 71 89 71 49 0 102 -38 136 -97 51 -86
75 -112 112 -119 48 -9 106 10 143 48 39 39 46 56 60 155 16 117 1 174 -60
236 -43 43 -51 47 -94 47 -41 0 -50 -5 -86 -41 -22 -23 -54 -70 -71 -105 -33
-67 -58 -84 -123 -84 -49 0 -76 24 -76 69 0 45 6 53 30 39 14 -9 29 -7 64 6
25 10 46 21 46 26 0 8 -40 26 -82 36 -16 3 -28 8 -28 10 0 19 51 97 92 140 68
72 130 98 233 99 66 0 90 -5 138 -27 80 -38 158 -115 193 -191 27 -57 29 -71
29 -178 l0 -116 -42 -84 c-44 -85 -51 -105 -34 -94 10 6 16 -21 26 -119 3 -32
10 -66 15 -75 8 -11 9 -3 5 29 -3 25 -6 83 -7 130 -2 75 2 93 28 150 27 60 29
74 29 185 0 117 -1 122 -34 188 -64 127 -179 208 -319 223 -31 4 -69 13 -83
20 -35 18 -97 25 -134 15z m120 -32 c5 -6 3 -9 -9 -9 -9 0 -41 -11 -71 -25
-100 -48 -188 -170 -218 -302 -11 -46 -18 -59 -34 -61 -27 -4 -63 42 -63 80 0
25 3 28 24 22 24 -6 86 21 86 38 0 4 -20 13 -45 21 l-46 13 32 47 c47 71 154
165 208 182 47 15 118 12 136 -6z m-315 -106 c-23 -26 -53 -68 -67 -93 -24
-43 -27 -45 -64 -42 -38 4 -38 4 -25 31 20 37 83 95 136 125 64 36 67 33 20
-21z m-203 -162 c-18 -55 -18 -62 -3 -92 20 -40 20 -39 -4 -39 -11 0 -27 11
-36 25 -15 22 -15 32 -4 68 13 43 45 97 59 97 4 0 -1 -27 -12 -59z m650 9 c68
-41 93 -139 69 -265 -18 -89 -35 -119 -86 -146 -78 -42 -115 -23 -194 100 -24
38 -54 71 -73 81 l-33 17 46 18 c25 9 48 24 51 32 5 12 17 14 62 9 31 -3 67
-9 80 -12 23 -7 23 -7 6 20 -11 16 -20 54 -23 96 l-5 70 34 0 c19 0 48 -9 66
-20z m-464 -5 c4 -17 -40 -17 -47 0 -5 13 0 16 19 13 14 -2 27 -7 28 -13z
m-120 -2 c-7 -2 -19 -2 -25 0 -7 3 -2 5 12 5 14 0 19 -2 13 -5z m471 -65 l7
-68 -48 7 c-27 3 -50 7 -52 9 -2 2 4 16 14 31 27 43 67 95 70 91 1 -2 5 -33 9
-70z m-431 -50 c-2 -5 -20 -8 -38 -8 -28 0 -37 6 -49 28 -8 15 -12 39 -9 53 4
22 9 24 38 21 20 -2 36 1 41 10 9 13 25 -89 17 -104z m215 82 c22 0 13 -18
-14 -24 -28 -7 -58 9 -48 26 4 5 16 7 28 4 11 -3 27 -6 34 -6z m-86 -145 l29
-25 -25 -10 c-72 -27 -74 -117 -5 -206 63 -80 111 -154 107 -164 -2 -5 -28 1
-58 13 -100 41 -139 136 -125 312 4 49 9 93 12 97 8 15 35 8 65 -17z m58 -152
c0 -16 -16 -32 -42 -42 -21 -8 -27 -7 -33 7 -4 10 1 21 11 29 19 14 64 18 64
6z"/>
</g>
</svg>
